<svg width="40" height="41" viewBox="0 0 40 41" fill="none" xmlns="http://www.w3.org/2000/svg">
<g clip-path="url(#clip0_16_6499)">
<path d="M14.7378 21.585C12.4178 21.585 10.5361 23.4666 10.5361 25.7866V36.2966C10.5361 38.6166 12.4178 40.4983 14.7378 40.4983C17.0578 40.4983 18.9395 38.6166 18.9395 36.2966V25.7866C18.9378 23.4666 17.0561 21.585 14.7378 21.585Z" fill="#E91E63"/>
<path d="M0.03125 25.7868C0.03125 28.1084 1.91458 29.9918 4.23625 29.9918C6.55792 29.9918 8.44125 28.1084 8.44125 25.7868V21.5818H4.23958C4.23792 21.5818 4.23792 21.5818 4.23625 21.5818C1.91458 21.5818 0.03125 23.4651 0.03125 25.7868V25.7868Z" fill="#E91E63"/>
<path d="M14.7432 0.498291C14.7415 0.498291 14.7399 0.498291 14.7382 0.498291C12.4165 0.498291 10.5332 2.38162 10.5332 4.70329C10.5332 7.02496 12.4165 8.90829 14.7382 8.90829H18.9399V4.70329C18.9399 4.70162 18.9399 4.69829 18.9399 4.69496C18.9382 2.37662 17.0599 0.498291 14.7432 0.498291V0.498291Z" fill="#36C5F0"/>
<path d="M4.20793 19.45H14.7379C17.0596 19.45 18.9429 17.5667 18.9429 15.245C18.9429 12.9234 17.0596 11.04 14.7379 11.04H4.20793C1.88626 11.04 0.00292969 12.9234 0.00292969 15.245C0.00292969 17.5667 1.88626 19.45 4.20793 19.45V19.45Z" fill="#36C5F0"/>
<path d="M35.7621 11.0383C33.4438 11.0383 31.5654 12.9167 31.5654 15.235V15.2433V19.4483H35.7671C38.0888 19.4483 39.9721 17.565 39.9721 15.2433C39.9721 12.9217 38.0888 11.0383 35.7671 11.0383C35.7654 11.0383 35.7638 11.0383 35.7621 11.0383V11.0383Z" fill="#4CAF50"/>
<path d="M21.0684 4.70338V15.245C21.0684 17.565 22.95 19.4467 25.27 19.4467C27.59 19.4467 29.4717 17.565 29.4717 15.245V4.70338C29.4717 2.38338 27.59 0.501709 25.27 0.501709C22.95 0.501709 21.0684 2.38338 21.0684 4.70338V4.70338Z" fill="#4CAF50"/>
<path d="M29.4697 36.2935C29.4697 33.9735 27.5881 32.0918 25.2681 32.0918H21.0664V36.2968C21.0681 38.6151 22.9481 40.4951 25.2681 40.4951C27.5881 40.4951 29.4697 38.6135 29.4697 36.2935Z" fill="#FF9800"/>
<path d="M35.7985 21.5818H25.2685C22.9468 21.5818 21.0635 23.4651 21.0635 25.7868C21.0635 28.1084 22.9468 29.9918 25.2685 29.9918H35.7985C38.1202 29.9918 40.0035 28.1084 40.0035 25.7868C40.0035 23.4651 38.1202 21.5818 35.7985 21.5818V21.5818Z" fill="#FF9800"/>
</g>
<defs>
<clipPath id="clip0_16_6499">
<rect width="40" height="40" fill="white" transform="translate(0 0.5)"/>
</clipPath>
</defs>
</svg>
