<svg width="20" height="20" viewBox="0 0 20 20" fill="none" xmlns="http://www.w3.org/2000/svg">
<g clip-path="url(#clip0_16_6593)">
<path d="M7.36939 10.5426C6.20939 10.5426 5.26855 11.4834 5.26855 12.6434V17.8984C5.26855 19.0584 6.20939 19.9993 7.36939 19.9993C8.52938 19.9993 9.47022 19.0584 9.47022 17.8984V12.6434C9.46938 11.4834 8.52855 10.5426 7.36939 10.5426Z" fill="#B4B6C4"/>
<path d="M0.015625 12.6434C0.015625 13.8042 0.957292 14.7459 2.11812 14.7459C3.27896 14.7459 4.22062 13.8042 4.22062 12.6434V10.5409H2.11979C2.11896 10.5409 2.11896 10.5409 2.11812 10.5409C0.957292 10.5409 0.015625 11.4826 0.015625 12.6434V12.6434Z" fill="#B4B6C4"/>
<path d="M7.3716 -0.000854492C7.37077 -0.000854492 7.36993 -0.000854492 7.3691 -0.000854492C6.20827 -0.000854492 5.2666 0.940812 5.2666 2.10165C5.2666 3.26248 6.20827 4.20415 7.3691 4.20415H9.46993V2.10165C9.46993 2.10081 9.46993 2.09915 9.46993 2.09748C9.4691 0.938312 8.52993 -0.000854492 7.3716 -0.000854492V-0.000854492Z" fill="#B4B6C4"/>
<path d="M2.10445 9.47501H7.36945C8.53029 9.47501 9.47195 8.53335 9.47195 7.37252C9.47195 6.21169 8.53029 5.27002 7.36945 5.27002H2.10445C0.94362 5.27002 0.00195312 6.21169 0.00195312 7.37252C0.00195312 8.53335 0.94362 9.47501 2.10445 9.47501V9.47501Z" fill="#B4B6C4"/>
<path d="M17.8806 5.26917C16.7214 5.26917 15.7822 6.20833 15.7822 7.3675V7.37166V9.47416H17.8831C19.0439 9.47416 19.9856 8.5325 19.9856 7.37166C19.9856 6.21083 19.0439 5.26917 17.8831 5.26917C17.8822 5.26917 17.8814 5.26917 17.8806 5.26917V5.26917Z" fill="#B4B6C4"/>
<path d="M10.5342 2.10181V7.37264C10.5342 8.53264 11.475 9.47348 12.635 9.47348C13.795 9.47348 14.7358 8.53264 14.7358 7.37264V2.10181C14.7358 0.94181 13.795 0.000976562 12.635 0.000976562C11.475 0.000976562 10.5342 0.94181 10.5342 2.10181V2.10181Z" fill="#B4B6C4"/>
<path d="M14.7349 17.8967C14.7349 16.7367 13.794 15.7959 12.634 15.7959H10.5332V17.8984C10.534 19.0576 11.474 19.9976 12.634 19.9976C13.794 19.9976 14.7349 19.0567 14.7349 17.8967Z" fill="#B4B6C4"/>
<path d="M17.8988 10.5409H12.6338C11.4729 10.5409 10.5312 11.4826 10.5312 12.6434C10.5312 13.8042 11.4729 14.7459 12.6338 14.7459H17.8988C19.0596 14.7459 20.0013 13.8042 20.0013 12.6434C20.0013 11.4826 19.0596 10.5409 17.8988 10.5409V10.5409Z" fill="#B4B6C4"/>
</g>
<defs>
<clipPath id="clip0_16_6593">
<rect width="20" height="20" fill="white"/>
</clipPath>
</defs>
</svg>
